<svg width="46" height="46" viewBox="0 0 46 46" fill="none" xmlns="http://www.w3.org/2000/svg">
<path fill-rule="evenodd" clip-rule="evenodd" d="M24.0791 6.1335H21.9209L20.6846 11.0747L19.4446 11.458C18.7219 11.6807 18.0218 11.9707 17.3535 12.3243L16.2054 12.9319L11.8354 10.3099L10.3097 11.8375L12.9317 16.2075L12.3241 17.3537C11.9699 18.022 11.6792 18.7221 11.4559 19.4447L11.0745 20.6848L6.13331 21.9211V24.0792L11.0745 25.3155L11.4578 26.5556C11.6789 27.2814 11.9676 27.9784 12.3241 28.6467L12.9317 29.7947L10.3097 34.1647L11.8373 35.6904L16.2073 33.0684L17.3535 33.676C18.0218 34.0312 18.7188 34.3206 19.4446 34.5442L20.6846 34.9257L21.9209 39.8668H24.0791L25.3153 34.9257L26.5554 34.5423C27.278 34.3197 27.9781 34.0296 28.6465 33.676L29.7946 33.0684L34.1646 35.6904L35.6902 34.1628L33.0682 29.7928L33.6758 28.6467C34.031 27.9784 34.3205 27.2814 34.5441 26.5556L34.9255 25.3155L39.8666 24.0792V21.9211L34.9255 20.6848L34.5421 19.4447C34.3195 18.7221 34.0294 18.022 33.6758 17.3537L33.0682 16.2056L35.6902 11.8356L34.1626 10.3099L29.7926 12.9319L28.6465 12.3243C27.9782 11.9701 27.2781 11.6794 26.5554 11.4561L25.3153 11.0747L24.0791 6.1335ZM29.7236 10.2927L33.2369 8.18433C33.6032 7.96461 34.0325 7.87356 34.4565 7.92565C34.8805 7.97773 35.2749 8.16997 35.5771 8.47183L37.5283 10.423C37.8302 10.7253 38.0224 11.1197 38.0745 11.5437C38.1266 11.9677 38.0355 12.3969 37.8158 12.7632L35.7075 16.2765C36.1291 17.0687 36.4741 17.8993 36.7425 18.7682L40.7157 19.7629C41.1302 19.8667 41.4981 20.1061 41.761 20.4429C42.0238 20.7798 42.1666 21.1948 42.1666 21.6221V24.3782C42.1666 24.8055 42.0238 25.2206 41.761 25.5574C41.4981 25.8942 41.1302 26.1336 40.7157 26.2374L36.7425 27.2322C36.4741 28.1011 36.1291 28.9316 35.7075 29.7238L37.8158 33.2371C38.0355 33.6034 38.1266 34.0327 38.0745 34.4566C38.0224 34.8806 37.8302 35.2751 37.5283 35.5773L35.5771 37.5285C35.2749 37.8304 34.8805 38.0226 34.4565 38.0747C34.0325 38.1268 33.6032 38.0357 33.2369 37.816L29.7236 35.7077C28.9314 36.1293 28.1009 36.4743 27.232 36.7427L26.2372 40.7159C26.1334 41.1304 25.8941 41.4983 25.5572 41.7612C25.2204 42.024 24.8053 42.1668 24.3781 42.1668H21.6219C21.1946 42.1668 20.7796 42.024 20.4427 41.7612C20.1059 41.4983 19.8666 41.1304 19.7627 40.7159L18.768 36.7427C17.9068 36.4765 17.0726 36.13 16.2763 35.7077L12.7631 37.816C12.3967 38.0357 11.9675 38.1268 11.5435 38.0747C11.1195 38.0226 10.7251 37.8304 10.4228 37.5285L8.47165 35.5773C8.16979 35.2751 7.97755 34.8806 7.92546 34.4566C7.87338 34.0327 7.96442 33.6034 8.18415 33.2371L10.2925 29.7238C9.87013 28.9276 9.5236 28.0933 9.25748 27.2322L5.28423 26.2374C4.87008 26.1337 4.50242 25.8946 4.23957 25.5581C3.97673 25.2217 3.83375 24.8071 3.83331 24.3802V21.624C3.83332 21.1967 3.97611 20.7817 4.23899 20.4448C4.50186 20.108 4.86976 19.8687 5.28423 19.7648L9.25748 18.7701C9.52581 17.9012 9.87081 17.0706 10.2925 16.2784L8.18415 12.7652C7.96442 12.3988 7.87338 11.9696 7.92546 11.5456C7.97755 11.1216 8.16979 10.7272 8.47165 10.4249L10.4228 8.47183C10.7251 8.16997 11.1195 7.97773 11.5435 7.92565C11.9675 7.87356 12.3967 7.96461 12.7631 8.18433L16.2763 10.2927C17.0685 9.871 17.8991 9.526 18.768 9.25766L19.7627 5.28441C19.8665 4.87026 20.1055 4.5026 20.442 4.23976C20.7784 3.97691 21.193 3.83393 21.62 3.8335H24.3761C24.8034 3.83351 25.2185 3.97629 25.5553 4.23917C25.8921 4.50205 26.1315 4.86994 26.2353 5.28441L27.2301 9.25766C28.099 9.526 28.9295 9.871 29.7217 10.2927H29.7236ZM23 28.3668C24.4233 28.3668 25.7883 27.8014 26.7948 26.795C27.8012 25.7885 28.3666 24.4235 28.3666 23.0002C28.3666 21.5768 27.8012 20.2118 26.7948 19.2054C25.7883 18.1989 24.4233 17.6335 23 17.6335C21.5767 17.6335 20.2116 18.1989 19.2052 19.2054C18.1987 20.2118 17.6333 21.5768 17.6333 23.0002C17.6333 24.4235 18.1987 25.7885 19.2052 26.795C20.2116 27.8014 21.5767 28.3668 23 28.3668ZM23 30.6668C20.9667 30.6668 19.0166 29.8591 17.5788 28.4213C16.141 26.9835 15.3333 25.0335 15.3333 23.0002C15.3333 20.9668 16.141 19.0168 17.5788 17.579C19.0166 16.1412 20.9667 15.3335 23 15.3335C25.0333 15.3335 26.9834 16.1412 28.4211 17.579C29.8589 19.0168 30.6666 20.9668 30.6666 23.0002C30.6666 25.0335 29.8589 26.9835 28.4211 28.4213C26.9834 29.8591 25.0333 30.6668 23 30.6668Z" fill="#8B919C"/>
</svg>
